<svg width="96" height="96" xmlns="http://www.w3.org/2000/svg" xmlns:xlink="http://www.w3.org/1999/xlink" xml:space="preserve" overflow="hidden"><defs><clipPath id="clip0"><rect x="820" y="312" width="96" height="96"/></clipPath></defs><g clip-path="url(#clip0)" transform="translate(-820 -312)"><path d="M856.315 403 830 392.1 830 326.999 856.315 316.099 856.315 403Z" stroke="#FFFFFF" fill="#FFFFFF"/><path d="M883.068 337.866 883.068 350.366 860.315 350.366 860.315 366.366 883.068 366.366 883.068 378.866 907.068 358.366 883.068 337.866Z" stroke="#FFFFFF" fill="#FFFFFF"/><path d="M871.068 346.366 877.068 346.366 877.068 326.366 860.315 326.366 860.315 332.366 871.068 332.366 871.068 346.366Z" stroke="#FFFFFF" fill="#FFFFFF"/><path d="M871.068 370.366 871.068 386.366 860.315 386.366 860.315 392.366 877.068 392.366 877.068 370.366 871.068 370.366Z" stroke="#FFFFFF" fill="#FFFFFF"/></g></svg>